<svg xmlns="http://www.w3.org/2000/svg" viewBox="0 0 64 64" width="64" height="64" role="img" aria-label="Athena alpha logo">
  <rect width="64" height="64" rx="14" fill="#f7f2ea"></rect>
  <g transform="translate(4.8291 54.0114) scale(0.083804 -0.083804)">
    <path d="M495 33Q476 33 458.5 41.0Q441 49 427 65Q411 84 401.5 96.5Q392 109 384.0 122.0Q376 135 362 156Q359 162 355.5 170.5Q352 179 345 194Q329 176 317.0 163.0Q305 150 294 136Q271 105 243.5 80.5Q216 56 184 36Q159 18 132.0 19.5Q105 21 84.5 39.5Q64 58 56 91Q47 142 51.0 185.0Q55 228 70.0 271.5Q85 315 109 366Q135 418 159.5 447.5Q184 477 221 496Q280 521 329 483Q334 479 340.0 468.5Q346 458 351 456Q374 452 385.0 450.0Q396 448 399.5 441.5Q403 435 403 416Q403 413 401.5 396.5Q400 380 398.5 361.5Q397 343 397 333Q397 283 409.5 235.5Q422 188 444 141Q461 110 479.5 98.0Q498 86 520 86Q522 86 532.5 87.5Q543 89 553.0 90.0Q563 91 562 91Q573 91 582.0 86.5Q591 82 596 70Q604 53 588.0 45.0Q572 37 545.5 35.0Q519 33 495 33ZM133 95H150Q196 109 231.0 145.5Q266 182 290.5 232.0Q315 282 327 336Q335 372 326.5 398.5Q318 425 288 445Q224 409 183.5 356.5Q143 304 124 236Q111 191 109.0 158.0Q107 125 133 95Z" fill="#1f1f1f"></path>
  </g>
</svg>